<svg id="Layer_1" data-name="Layer 1" xmlns="http://www.w3.org/2000/svg" xmlns:xlink="http://www.w3.org/1999/xlink" viewBox="0 0 341 413"><defs><style>.cls-1{fill:#dc3c3a;}.cls-2{clip-path:url(#clip-path);}.cls-3{fill:#212121;}.cls-4{fill:#e8e8e8;}.cls-5{fill:#d1d1d1;}</style><clipPath id="clip-path"><path class="cls-1" d="M286.18,144.18a122.68,122.68,0,0,0-245.36,0h0a545.56,545.56,0,0,0,245.36,0Z"/></clipPath></defs><path class="cls-1" d="M286.18,144.18a122.68,122.68,0,0,0-245.36,0h0a545.56,545.56,0,0,0,245.36,0Z"/><g class="cls-2"><path class="cls-3" d="M38.82,133s110.38,32.6,247.36,0h0l8.29,22.3s-245.36,24-253.94,3.43S38.82,133,38.82,133Z"/></g><circle class="cls-3" cx="163.5" cy="151.47" r="27.45"/><circle class="cls-4" cx="163.5" cy="151.47" r="14.58"/><path class="cls-1" d="M29,194.26h3.72v22.65H29Z"/><path class="cls-1" d="M63.07,206.87c0-3.29-1.79-5-4.5-5s-4.53,1.69-4.53,5v10H50.36v-10c0-3.29-1.79-5-4.5-5s-4.53,1.69-4.53,5v10H37.62V199h3.71V201a6.83,6.83,0,0,1,5.31-2.35,6.94,6.94,0,0,1,6.46,3.55,7,7,0,0,1,6.26-3.55c4.2,0,7.39,2.64,7.39,7.66v10.59H63.07Z"/><path class="cls-1" d="M78.72,198.66a7.68,7.68,0,0,1,6.23,2.9V199H88.7v18H85v-2.67a7.73,7.73,0,0,1-6.29,3c-4.66,0-8.41-3.82-8.41-9.36S74,198.66,78.72,198.66Zm.78,3.23c-2.77,0-5.44,2.08-5.44,6S76.73,214,79.5,214,85,211.8,85,207.92,82.31,201.89,79.5,201.89Z"/><path class="cls-1" d="M100.83,198.66a7.61,7.61,0,0,1,6.22,2.9V199h3.75v18.26c0,4.89-3.16,8.57-8.77,8.57-4.79,0-8.34-2.38-8.8-6.36h3.68c.56,1.86,2.55,3.13,5.12,3.13,2.87,0,5-1.76,5-5.34v-3a7.71,7.71,0,0,1-6.22,3c-4.73,0-8.48-3.82-8.48-9.36S96.1,198.66,100.83,198.66Zm.78,3.23c-2.77,0-5.44,2.08-5.44,6s2.67,6.13,5.44,6.13,5.44-2.18,5.44-6.06S104.41,201.89,101.61,201.89Z"/><path class="cls-1" d="M123.42,217.21c-5.15,0-9-3.65-9-9.29s3.65-9.26,9-9.26c5.11,0,8.73,3.55,8.73,8.83a11.27,11.27,0,0,1-.13,1.83H118.3a4.94,4.94,0,0,0,5.12,4.76,4.34,4.34,0,0,0,4.23-2.51h4A8.2,8.2,0,0,1,123.42,217.21Zm-5.09-10.89h9.94c-.06-2.77-2.25-4.53-5-4.53A4.89,4.89,0,0,0,118.33,206.32Z"/><path class="cls-1" d="M157,206.87c0-3.29-1.8-5-4.5-5s-4.53,1.69-4.53,5v10h-3.72V199H148V201a6.88,6.88,0,0,1,5.34-2.35c4.21,0,7.37,2.64,7.37,7.66v10.59H157Z"/><path class="cls-1" d="M173.23,217.21c-5.12,0-9-3.65-9-9.29a9.16,9.16,0,1,1,18.32,0A9,9,0,0,1,173.23,217.21Zm0-3.23c2.77,0,5.51-2,5.51-6.06s-2.64-6-5.41-6-5.32,2-5.32,6S170.43,214,173.23,214Z"/><path class="cls-1" d="M186.82,202h-2.11v-3h2.11v-4.46h3.75V199h4.37v3h-4.37v9.94c0,1.33.52,1.89,2.09,1.89h2.28v3.09H192c-3.2,0-5.19-1.33-5.19-5Z"/><path class="cls-1" d="M207.3,202h-2.12v-3h2.12v-1.27c0-4.14,2.12-5.93,6.81-5.93v3.1c-2.28,0-3.07.78-3.07,2.83V199h3.33v3H211v14.92H207.3Z"/><path class="cls-1" d="M225.45,217.21c-5.11,0-9-3.65-9-9.29a9.16,9.16,0,1,1,18.31,0A9,9,0,0,1,225.45,217.21Zm0-3.23c2.77,0,5.51-2,5.51-6.06s-2.64-6-5.41-6-5.31,2-5.31,6S222.65,214,225.45,214Z"/><path class="cls-1" d="M254.73,216.91H251v-2.15a6.68,6.68,0,0,1-5.31,2.41c-4.21,0-7.4-2.64-7.4-7.66V199H242v10c0,3.29,1.79,5,4.5,5s4.53-1.7,4.53-5V199h3.72Z"/><path class="cls-1" d="M272.36,206.87c0-3.29-1.79-5-4.49-5s-4.54,1.69-4.54,5v10h-3.71V199h3.71V201a6.92,6.92,0,0,1,5.35-2.35c4.2,0,7.37,2.64,7.37,7.66v10.59h-3.69Z"/><path class="cls-1" d="M288,198.66a8.3,8.3,0,0,1,6.2,2.8v-8.67H298v24.12h-3.75v-2.7a7.44,7.44,0,0,1-6.23,3c-4.72,0-8.47-3.82-8.47-9.36S283.29,198.66,288,198.66Zm.75,3.23c-2.77,0-5.44,2.08-5.44,6S286,214,288.79,214s5.45-2.18,5.45-6.06S291.6,201.89,288.79,201.89Z"/><path class="cls-4" d="M40.82,268.82a122.68,122.68,0,0,0,245.36,0h0a545.56,545.56,0,0,0-245.36,0Z"/><ellipse class="cls-5" cx="163.5" cy="269.43" rx="122.68" ry="38.61"/><circle class="cls-5" cx="163.5" cy="306.32" r="27.45"/></svg>